<mxfile host="app.diagrams.net" modified="2023-09-20T04:49:12.207Z" agent="Mozilla/5.0 (Windows NT 10.0; Win64; x64) AppleWebKit/537.36 (KHTML, like Gecko) Chrome/117.0.0.0 Safari/537.36" etag="xDvwdTafQK5IADXGrdJR" version="21.7.5" type="device">
  <diagram name="Page-1" id="RKbDKAGss8H3Hdxl_bRg">
    <mxGraphModel dx="1644" dy="432" grid="1" gridSize="10" guides="1" tooltips="1" connect="1" arrows="1" fold="1" page="1" pageScale="1" pageWidth="850" pageHeight="1100" math="0" shadow="0">
      <root>
        <mxCell id="0" />
        <mxCell id="1" parent="0" />
        <mxCell id="n_IzpwLZ1t9MEBrfw3WD-1" value="Cutting Priority List" style="rounded=0;whiteSpace=wrap;html=1;" vertex="1" parent="1">
          <mxGeometry x="350" y="40" width="120" height="60" as="geometry" />
        </mxCell>
        <mxCell id="n_IzpwLZ1t9MEBrfw3WD-3" value="" style="endArrow=classic;html=1;rounded=0;exitX=0.5;exitY=1;exitDx=0;exitDy=0;" edge="1" parent="1" source="n_IzpwLZ1t9MEBrfw3WD-1">
          <mxGeometry width="50" height="50" relative="1" as="geometry">
            <mxPoint x="380" y="250" as="sourcePoint" />
            <mxPoint x="40" y="260" as="targetPoint" />
            <Array as="points">
              <mxPoint x="410" y="180" />
              <mxPoint x="40" y="180" />
            </Array>
          </mxGeometry>
        </mxCell>
        <mxCell id="n_IzpwLZ1t9MEBrfw3WD-5" value="Intimates" style="text;html=1;align=center;verticalAlign=middle;resizable=0;points=[];autosize=1;strokeColor=none;fillColor=none;" vertex="1" parent="1">
          <mxGeometry x="10" y="260" width="70" height="30" as="geometry" />
        </mxCell>
        <mxCell id="n_IzpwLZ1t9MEBrfw3WD-6" value="" style="endArrow=classic;html=1;rounded=0;" edge="1" parent="1">
          <mxGeometry width="50" height="50" relative="1" as="geometry">
            <mxPoint x="410" y="180" as="sourcePoint" />
            <mxPoint x="410" y="260" as="targetPoint" />
          </mxGeometry>
        </mxCell>
        <mxCell id="n_IzpwLZ1t9MEBrfw3WD-7" value="Active / Kreeda" style="text;html=1;align=center;verticalAlign=middle;resizable=0;points=[];autosize=1;strokeColor=none;fillColor=none;" vertex="1" parent="1">
          <mxGeometry x="360" y="258" width="100" height="30" as="geometry" />
        </mxCell>
        <mxCell id="n_IzpwLZ1t9MEBrfw3WD-8" value="" style="endArrow=classic;html=1;rounded=0;" edge="1" parent="1">
          <mxGeometry width="50" height="50" relative="1" as="geometry">
            <mxPoint x="410" y="180" as="sourcePoint" />
            <mxPoint x="800" y="260" as="targetPoint" />
            <Array as="points">
              <mxPoint x="800" y="180" />
            </Array>
          </mxGeometry>
        </mxCell>
        <mxCell id="n_IzpwLZ1t9MEBrfw3WD-9" value="Bodyline" style="text;html=1;align=center;verticalAlign=middle;resizable=0;points=[];autosize=1;strokeColor=none;fillColor=none;" vertex="1" parent="1">
          <mxGeometry x="770" y="258" width="70" height="30" as="geometry" />
        </mxCell>
        <mxCell id="n_IzpwLZ1t9MEBrfw3WD-10" value="" style="endArrow=classic;html=1;rounded=0;" edge="1" parent="1">
          <mxGeometry width="50" height="50" relative="1" as="geometry">
            <mxPoint x="40" y="290" as="sourcePoint" />
            <mxPoint x="-200" y="400" as="targetPoint" />
            <Array as="points">
              <mxPoint x="40" y="360" />
              <mxPoint x="-200" y="360" />
            </Array>
          </mxGeometry>
        </mxCell>
        <mxCell id="n_IzpwLZ1t9MEBrfw3WD-11" value="All Information" style="text;html=1;align=center;verticalAlign=middle;resizable=0;points=[];autosize=1;strokeColor=none;fillColor=none;" vertex="1" parent="1">
          <mxGeometry x="-250" y="398" width="100" height="30" as="geometry" />
        </mxCell>
        <mxCell id="n_IzpwLZ1t9MEBrfw3WD-12" value="" style="endArrow=classic;html=1;rounded=0;" edge="1" parent="1">
          <mxGeometry width="50" height="50" relative="1" as="geometry">
            <mxPoint x="-100" y="360" as="sourcePoint" />
            <mxPoint x="-100" y="400" as="targetPoint" />
          </mxGeometry>
        </mxCell>
        <mxCell id="n_IzpwLZ1t9MEBrfw3WD-13" value="Ratio Plan Pending" style="text;html=1;align=center;verticalAlign=middle;resizable=0;points=[];autosize=1;strokeColor=none;fillColor=none;" vertex="1" parent="1">
          <mxGeometry x="-165" y="398" width="130" height="30" as="geometry" />
        </mxCell>
      </root>
    </mxGraphModel>
  </diagram>
</mxfile>
